<svg width="338" height="96" viewBox="0 0 338 96" fill="none" xmlns="http://www.w3.org/2000/svg">
<path d="M82.328 29.56C82.328 35 80.408 39.704 76.568 43.672C72.728 47.576 67.128 50.392 59.768 52.12C63.736 53.208 66.744 55 68.792 57.496C70.84 59.928 71.864 62.744 71.864 65.944C71.864 71 70.264 75.384 67.064 79.096C63.928 82.808 59.32 85.688 53.24 87.736C47.16 89.72 39.832 90.712 31.256 90.712C28.056 90.712 25.496 90.616 23.576 90.424C23.512 92.216 22.744 93.56 21.272 94.456C19.8 95.352 17.912 95.8 15.608 95.8C13.304 95.8 11.704 95.288 10.808 94.264C9.976 93.24 9.624 91.736 9.752 89.752C10.328 80.792 11.448 71.416 13.112 61.624C14.776 51.768 16.888 42.264 19.448 33.112C19.896 31.512 20.792 30.392 22.136 29.752C23.48 29.112 25.24 28.792 27.416 28.792C31.32 28.792 33.272 29.88 33.272 32.056C33.272 32.952 33.08 33.976 32.696 35.128C31.032 40.12 29.368 46.904 27.704 55.48C26.04 63.992 24.856 72.12 24.152 79.864C27.224 80.12 29.72 80.248 31.64 80.248C40.6 80.248 47.16 78.968 51.32 76.408C55.544 73.784 57.656 70.456 57.656 66.424C57.656 63.608 56.44 61.24 54.008 59.32C51.64 57.4 47.64 56.344 42.008 56.152C40.728 56.088 39.832 55.768 39.32 55.192C38.808 54.616 38.552 53.688 38.552 52.408C38.552 50.552 38.936 49.048 39.704 47.896C40.472 46.744 41.88 46.136 43.928 46.072C48.472 45.944 52.568 45.272 56.216 44.056C59.928 42.84 62.84 41.144 64.952 38.968C67.064 36.728 68.12 34.136 68.12 31.192C68.12 27.48 66.296 24.568 62.648 22.456C59 20.28 53.4 19.192 45.848 19.192C39 19.192 32.376 20.088 25.976 21.88C19.576 23.608 14.136 25.816 9.656 28.504C7.608 29.72 5.88 30.328 4.472 30.328C3.32 30.328 2.424 29.944 1.784 29.176C1.208 28.344 0.92 27.32 0.92 26.104C0.92 24.504 1.24 23.128 1.88 21.976C2.584 20.824 4.216 19.512 6.776 18.04C12.152 14.968 18.456 12.568 25.688 10.84C32.92 9.112 40.312 8.248 47.864 8.248C59.448 8.248 68.088 10.2 73.784 14.104C79.48 18.008 82.328 23.16 82.328 29.56ZM128.599 61.528C129.431 61.528 130.071 61.944 130.519 62.776C130.967 63.608 131.191 64.664 131.191 65.944C131.191 69.016 130.263 70.84 128.407 71.416C124.567 72.76 120.343 73.528 115.735 73.72C114.519 79.096 112.119 83.416 108.535 86.68C104.951 89.88 100.887 91.48 96.3433 91.48C92.5033 91.48 89.2073 90.552 86.4553 88.696C83.7673 86.84 81.7193 84.376 80.3113 81.304C78.9033 78.232 78.1992 74.904 78.1992 71.32C78.1992 66.456 79.1273 62.136 80.9833 58.36C82.8393 54.52 85.3993 51.544 88.6633 49.432C91.9273 47.256 95.5433 46.168 99.5113 46.168C104.375 46.168 108.279 47.864 111.223 51.256C114.231 54.584 115.991 58.712 116.503 63.64C119.511 63.448 123.095 62.808 127.255 61.72C127.767 61.592 128.215 61.528 128.599 61.528ZM97.1113 81.304C99.1593 81.304 100.919 80.472 102.391 78.808C103.927 77.144 104.951 74.744 105.463 71.608C103.479 70.264 101.943 68.504 100.855 66.328C99.8313 64.152 99.3193 61.848 99.3193 59.416C99.3193 58.392 99.4153 57.368 99.6073 56.344H99.1273C96.5673 56.344 94.4233 57.592 92.6953 60.088C91.0313 62.52 90.1993 65.976 90.1993 70.456C90.1993 73.976 90.8713 76.664 92.2153 78.52C93.6233 80.376 95.2553 81.304 97.1113 81.304ZM171.912 61.528C172.744 61.528 173.384 61.944 173.832 62.776C174.28 63.608 174.504 64.664 174.504 65.944C174.504 69.016 173.576 70.84 171.72 71.416C167.88 72.76 163.656 73.528 159.048 73.72C157.832 79.096 155.432 83.416 151.848 86.68C148.264 89.88 144.2 91.48 139.656 91.48C135.816 91.48 132.52 90.552 129.768 88.696C127.08 86.84 125.032 84.376 123.624 81.304C122.216 78.232 121.512 74.904 121.512 71.32C121.512 66.456 122.44 62.136 124.296 58.36C126.152 54.52 128.712 51.544 131.976 49.432C135.24 47.256 138.856 46.168 142.824 46.168C147.688 46.168 151.592 47.864 154.536 51.256C157.544 54.584 159.304 58.712 159.816 63.64C162.824 63.448 166.408 62.808 170.568 61.72C171.08 61.592 171.528 61.528 171.912 61.528ZM140.424 81.304C142.472 81.304 144.232 80.472 145.704 78.808C147.24 77.144 148.264 74.744 148.776 71.608C146.792 70.264 145.256 68.504 144.168 66.328C143.144 64.152 142.632 61.848 142.632 59.416C142.632 58.392 142.728 57.368 142.92 56.344H142.44C139.88 56.344 137.736 57.592 136.008 60.088C134.344 62.52 133.512 65.976 133.512 70.456C133.512 73.976 134.184 76.664 135.528 78.52C136.936 80.376 138.568 81.304 140.424 81.304ZM207.064 81.016C209.688 81.528 211 82.968 211 85.336C211 86.936 210.264 88.376 208.792 89.656C207.384 90.872 205.336 91.48 202.648 91.48C198.04 91.48 194.264 90.072 191.32 87.256C188.44 84.376 187 80.632 187 76.024C187 73.528 188.28 71.736 190.84 70.648C193.656 69.432 195.672 68.152 196.888 66.808C198.104 65.4 198.712 63.704 198.712 61.72C198.712 60.568 198.456 59.704 197.944 59.128C197.496 58.552 196.92 58.264 196.216 58.264C194.488 58.264 192.568 59.512 190.456 62.008C188.408 64.504 186.488 67.736 184.696 71.704C182.904 75.608 181.496 79.64 180.472 83.8C179.768 86.808 178.936 88.856 177.976 89.944C177.08 90.968 175.64 91.48 173.656 91.48C171.672 91.48 170.2 90.776 169.24 89.368C168.344 87.896 167.736 85.656 167.416 82.648C167.096 79.64 166.936 75.224 166.936 69.4C166.936 59.544 167.928 49.272 169.912 38.584C171.96 27.896 174.936 18.936 178.84 11.704C182.808 4.408 187.544 0.759995 193.048 0.759995C195.992 0.759995 198.36 2.04 200.152 4.6C202.008 7.09599 202.936 10.36 202.936 14.392C202.936 20.856 201.048 27.576 197.272 34.552C193.496 41.464 187.352 49.56 178.84 58.84C178.648 62.168 178.552 65.592 178.552 69.112C181.624 61.112 185.144 55.32 189.112 51.736C193.08 48.088 196.792 46.264 200.248 46.264C203.448 46.264 206.008 47.352 207.928 49.528C209.912 51.704 210.904 54.392 210.904 57.592C210.904 61.112 210.008 64.344 208.216 67.288C206.424 70.232 203.352 72.856 199 75.16C199.384 77.08 200.152 78.424 201.304 79.192C202.52 79.896 204.44 80.504 207.064 81.016ZM191.032 10.264C189.88 10.264 188.6 11.928 187.192 15.256C185.784 18.52 184.408 22.968 183.064 28.6C181.784 34.168 180.728 40.248 179.896 46.84C183.864 42.168 187.128 37.08 189.688 31.576C192.312 26.072 193.624 21.08 193.624 16.6C193.624 14.552 193.4 12.984 192.952 11.896C192.504 10.808 191.864 10.264 191.032 10.264ZM254.309 39.928C251.621 39.928 249.605 39.32 248.261 38.104C246.917 36.824 246.245 35.064 246.245 32.824C246.245 30.584 247.109 28.728 248.837 27.256C250.629 25.72 252.837 24.952 255.461 24.952C257.829 24.952 259.749 25.528 261.221 26.68C262.693 27.832 263.429 29.464 263.429 31.576C263.429 34.136 262.597 36.184 260.933 37.72C259.269 39.192 257.061 39.928 254.309 39.928ZM253.541 91.48C249.381 91.48 246.341 90.008 244.421 87.064C242.565 84.12 241.637 80.216 241.637 75.352C241.637 72.472 241.989 68.792 242.693 64.312C243.461 59.768 244.421 55.544 245.573 51.64C246.149 49.592 246.917 48.184 247.877 47.416C248.837 46.648 250.373 46.264 252.485 46.264C255.749 46.264 257.381 47.352 257.381 49.528C257.381 51.128 256.773 54.84 255.557 60.664C254.021 67.704 253.253 72.472 253.253 74.968C253.253 76.888 253.509 78.36 254.021 79.384C254.533 80.408 255.397 80.92 256.613 80.92C257.765 80.92 259.205 80.12 260.933 78.52C262.661 76.92 264.965 74.392 267.845 70.936C268.613 70.04 269.477 69.592 270.437 69.592C271.269 69.592 271.909 69.976 272.357 70.744C272.869 71.512 273.125 72.568 273.125 73.912C273.125 76.472 272.517 78.456 271.301 79.864C264.965 87.608 259.045 91.48 253.541 91.48ZM281.198 55.384C281.07 58.584 281.006 61.08 281.006 62.872C281.006 67.48 281.23 71.096 281.678 73.72C282.19 76.28 282.99 78.136 284.078 79.288C285.23 80.376 286.798 80.92 288.782 80.92C289.806 80.92 291.022 80.6 292.43 79.96C293.838 79.32 295.118 78.488 296.27 77.464C296.974 76.824 297.678 76.504 298.382 76.504C299.15 76.504 299.758 76.952 300.206 77.848C300.718 78.68 300.974 79.704 300.974 80.92C300.974 82.136 300.718 83.32 300.206 84.472C299.758 85.624 299.054 86.584 298.094 87.352C294.766 90.104 290.99 91.48 286.766 91.48C280.686 91.48 276.238 88.952 273.422 83.896C270.606 78.776 269.198 72.12 269.198 63.928C269.198 61.112 269.294 58.264 269.486 55.384H265.742C263.822 55.384 262.51 55.032 261.806 54.328C261.166 53.624 260.846 52.504 260.846 50.968C260.846 47.384 262.286 45.592 265.166 45.592H270.638C271.726 38.552 273.39 32.12 275.63 26.296C277.87 20.472 280.558 15.832 283.694 12.376C286.894 8.92 290.318 7.192 293.966 7.192C296.654 7.192 298.766 8.376 300.302 10.744C301.838 13.112 302.606 16.088 302.606 19.672C302.606 29.592 298.446 38.232 290.126 45.592H300.878C301.902 45.592 302.638 45.816 303.086 46.264C303.534 46.712 303.758 47.544 303.758 48.76C303.758 53.176 300.142 55.384 292.91 55.384H281.198ZM291.374 16.408C290.414 16.408 289.326 17.624 288.11 20.056C286.958 22.424 285.838 25.752 284.75 30.04C283.726 34.264 282.862 38.968 282.158 44.152C285.934 40.888 288.75 37.24 290.606 33.208C292.526 29.112 293.486 25.4 293.486 22.072C293.486 18.296 292.782 16.408 291.374 16.408ZM317.641 68.536C316.361 68.536 315.305 68.248 314.473 67.672C313.641 67.096 313.225 66.2 313.225 64.984L313.321 64.216C314.409 57.048 315.881 48.888 317.737 39.736C319.593 30.584 321.321 22.68 322.921 16.024C323.945 11.928 326.729 9.88 331.273 9.88C335.369 9.88 337.417 11.192 337.417 13.816C337.417 14.392 337.321 15.032 337.129 15.736C335.465 22.52 333.257 30.744 330.505 40.408C327.753 50.008 325.129 58.36 322.633 65.464C321.929 67.512 320.265 68.536 317.641 68.536ZM313.993 91.48C311.177 91.48 309.033 90.712 307.561 89.176C306.153 87.64 305.449 85.624 305.449 83.128C305.449 80.248 306.249 77.944 307.849 76.216C309.513 74.488 311.817 73.624 314.761 73.624C317.577 73.624 319.689 74.328 321.097 75.736C322.569 77.08 323.305 79.096 323.305 81.784C323.305 84.728 322.473 87.096 320.809 88.888C319.145 90.616 316.873 91.48 313.993 91.48Z" fill="white"/>
</svg>
