<svg width="25" height="24" viewBox="0 0 25 24" fill="none" xmlns="http://www.w3.org/2000/svg">
<g id="money__icon" clip-path="url(#clip0_84_866)">
<path id="Vector" d="M12.2999 10.9C10.0299 10.31 9.29995 9.7 9.29995 8.75C9.29995 7.66 10.3099 6.9 11.9999 6.9C13.7799 6.9 14.4399 7.75 14.4999 9H16.7099C16.6399 7.28 15.5899 5.7 13.4999 5.19V3H10.4999V5.16C8.55995 5.58 6.99995 6.84 6.99995 8.77C6.99995 11.08 8.90995 12.23 11.6999 12.9C14.1999 13.5 14.6999 14.38 14.6999 15.31C14.6999 16 14.2099 17.1 11.9999 17.1C9.93995 17.1 9.12995 16.18 9.01995 15H6.81995C6.93995 17.19 8.57995 18.42 10.4999 18.83V21H13.4999V18.85C15.4499 18.48 16.9999 17.35 16.9999 15.3C16.9999 12.46 14.5699 11.49 12.2999 10.9Z" fill="black"/>
</g>
<defs>
<clipPath id="clip0_84_866">
<rect width="24" height="24" fill="white" transform="translate(0.5)"/>
</clipPath>
</defs>
</svg>
